# xmcd CD database file
#
# Track frame offsets:
#	150
#	6595
#	25556
#	49558
#	73931
#	94129
#	125238
#	182225
#	207177
#	221030
#	238394
#	267242
#	290673
#	315271
#	329115
#
# Disc length: 4762 seconds
#
# Revision: 0
# Processed by: cddbd v1.5.1PL2 Copyright (c) Steve Scherf et al.
# Submitted via: CDex 1.51
#
DISCID=f012980f
DTITLE=Nickelback - 2006-02-15-Air Canada Centre-Toronto, Canada
DYEAR=2006
DGENRE=Blues
TTITLE0=Crowd Noise
TTITLE1=Animals
TTITLE2=Woke Up This Morning
TTITLE3=Photograph
TTITLE4=Breathe
TTITLE5=Someday
TTITLE6=Curb Jam - Never Again - Curb Jam (Part 2)
TTITLE7=Savin' Me
TTITLE8=Side Of A Bullet
TTITLE9=Drum Solo (Danny Adair)
TTITLE10=Follow You Home
TTITLE11=How You Remind Me
TTITLE12=Too Bad
TTITLE13=Crowd Noise
TTITLE14=Figured You Out
EXTD=YEAR: 2006
EXTT0=
EXTT1=
EXTT2=
EXTT3=
EXTT4=
EXTT5=
EXTT6=
EXTT7=
EXTT8=
EXTT9=
EXTT10=
EXTT11=
EXTT12=
EXTT13=
EXTT14=
PLAYORDER=
